<mxfile host="app.diagrams.net" modified="2022-10-13T11:21:02.106Z" agent="5.0 (Windows NT 10.0; Win64; x64) AppleWebKit/537.36 (KHTML, like Gecko) Chrome/105.0.0.0 Safari/537.36" etag="EDO8_TlNMpkZRtDr2SyE" version="20.4.0" type="github">
  <diagram id="C5RBs43oDa-KdzZeNtuy" name="Page-1">
    <mxGraphModel dx="1697" dy="2030" grid="1" gridSize="10" guides="1" tooltips="1" connect="1" arrows="1" fold="1" page="1" pageScale="1" pageWidth="827" pageHeight="1169" math="0" shadow="0">
      <root>
        <mxCell id="WIyWlLk6GJQsqaUBKTNV-0" />
        <mxCell id="WIyWlLk6GJQsqaUBKTNV-1" parent="WIyWlLk6GJQsqaUBKTNV-0" />
        <mxCell id="zkfFHV4jXpPFQw0GAbJ--0" value="CCSprite" style="swimlane;fontStyle=2;align=center;verticalAlign=top;childLayout=stackLayout;horizontal=1;startSize=26;horizontalStack=0;resizeParent=1;resizeLast=0;collapsible=1;marginBottom=0;rounded=0;shadow=0;strokeWidth=1;" parent="WIyWlLk6GJQsqaUBKTNV-1" vertex="1">
          <mxGeometry x="120" y="86" width="160" height="138" as="geometry">
            <mxRectangle x="230" y="140" width="160" height="26" as="alternateBounds" />
          </mxGeometry>
        </mxCell>
        <mxCell id="zkfFHV4jXpPFQw0GAbJ--2" value="_spriteFrame" style="text;align=left;verticalAlign=top;spacingLeft=4;spacingRight=4;overflow=hidden;rotatable=0;points=[[0,0.5],[1,0.5]];portConstraint=eastwest;rounded=0;shadow=0;html=0;" parent="zkfFHV4jXpPFQw0GAbJ--0" vertex="1">
          <mxGeometry y="26" width="160" height="26" as="geometry" />
        </mxCell>
        <mxCell id="zkfFHV4jXpPFQw0GAbJ--4" value="" style="line;html=1;strokeWidth=1;align=left;verticalAlign=middle;spacingTop=-1;spacingLeft=3;spacingRight=3;rotatable=0;labelPosition=right;points=[];portConstraint=eastwest;" parent="zkfFHV4jXpPFQw0GAbJ--0" vertex="1">
          <mxGeometry y="52" width="160" height="8" as="geometry" />
        </mxCell>
        <mxCell id="zkfFHV4jXpPFQw0GAbJ--6" value="SingleSprite&#xa;" style="swimlane;fontStyle=0;align=center;verticalAlign=top;childLayout=stackLayout;horizontal=1;startSize=26;horizontalStack=0;resizeParent=1;resizeLast=0;collapsible=1;marginBottom=0;rounded=0;shadow=0;strokeWidth=1;" parent="WIyWlLk6GJQsqaUBKTNV-1" vertex="1">
          <mxGeometry x="340" y="366" width="160" height="86" as="geometry">
            <mxRectangle x="130" y="380" width="160" height="26" as="alternateBounds" />
          </mxGeometry>
        </mxCell>
        <mxCell id="zkfFHV4jXpPFQw0GAbJ--7" value="Sprite _sprite" style="text;align=left;verticalAlign=top;spacingLeft=4;spacingRight=4;overflow=hidden;rotatable=0;points=[[0,0.5],[1,0.5]];portConstraint=eastwest;" parent="zkfFHV4jXpPFQw0GAbJ--6" vertex="1">
          <mxGeometry y="26" width="160" height="26" as="geometry" />
        </mxCell>
        <mxCell id="zkfFHV4jXpPFQw0GAbJ--9" value="" style="line;html=1;strokeWidth=1;align=left;verticalAlign=middle;spacingTop=-1;spacingLeft=3;spacingRight=3;rotatable=0;labelPosition=right;points=[];portConstraint=eastwest;" parent="zkfFHV4jXpPFQw0GAbJ--6" vertex="1">
          <mxGeometry y="52" width="160" height="8" as="geometry" />
        </mxCell>
        <mxCell id="ITSwiidnPCKGS9sClgnD-25" value="Release(){_sprite=null}" style="text;align=left;verticalAlign=top;spacingLeft=4;spacingRight=4;overflow=hidden;rotatable=0;points=[[0,0.5],[1,0.5]];portConstraint=eastwest;" vertex="1" parent="zkfFHV4jXpPFQw0GAbJ--6">
          <mxGeometry y="60" width="160" height="26" as="geometry" />
        </mxCell>
        <mxCell id="zkfFHV4jXpPFQw0GAbJ--12" value="" style="endArrow=block;endSize=10;endFill=0;shadow=0;strokeWidth=1;rounded=0;edgeStyle=elbowEdgeStyle;elbow=vertical;entryX=0.5;entryY=1;entryDx=0;entryDy=0;" parent="WIyWlLk6GJQsqaUBKTNV-1" source="zkfFHV4jXpPFQw0GAbJ--6" target="ITSwiidnPCKGS9sClgnD-0" edge="1">
          <mxGeometry width="160" relative="1" as="geometry">
            <mxPoint x="100" y="169" as="sourcePoint" />
            <mxPoint x="100" y="169" as="targetPoint" />
            <Array as="points">
              <mxPoint x="620" y="276" />
            </Array>
          </mxGeometry>
        </mxCell>
        <mxCell id="zkfFHV4jXpPFQw0GAbJ--13" value="PListSpriteFrame" style="swimlane;fontStyle=0;align=center;verticalAlign=top;childLayout=stackLayout;horizontal=1;startSize=26;horizontalStack=0;resizeParent=1;resizeLast=0;collapsible=1;marginBottom=0;rounded=0;shadow=0;strokeWidth=1;fillColor=#d5e8d4;strokeColor=#82b366;" parent="WIyWlLk6GJQsqaUBKTNV-1" vertex="1">
          <mxGeometry x="650" y="590" width="160" height="160" as="geometry">
            <mxRectangle x="340" y="380" width="170" height="26" as="alternateBounds" />
          </mxGeometry>
        </mxCell>
        <mxCell id="zkfFHV4jXpPFQw0GAbJ--14" value="_refCount:int" style="text;align=left;verticalAlign=top;spacingLeft=4;spacingRight=4;overflow=hidden;rotatable=0;points=[[0,0.5],[1,0.5]];portConstraint=eastwest;" parent="zkfFHV4jXpPFQw0GAbJ--13" vertex="1">
          <mxGeometry y="26" width="160" height="26" as="geometry" />
        </mxCell>
        <mxCell id="ITSwiidnPCKGS9sClgnD-17" value="_rotated:bool" style="text;align=left;verticalAlign=top;spacingLeft=4;spacingRight=4;overflow=hidden;rotatable=0;points=[[0,0.5],[1,0.5]];portConstraint=eastwest;" vertex="1" parent="zkfFHV4jXpPFQw0GAbJ--13">
          <mxGeometry y="52" width="160" height="26" as="geometry" />
        </mxCell>
        <mxCell id="ITSwiidnPCKGS9sClgnD-16" value="_sprite:Sprite" style="text;align=left;verticalAlign=top;spacingLeft=4;spacingRight=4;overflow=hidden;rotatable=0;points=[[0,0.5],[1,0.5]];portConstraint=eastwest;" vertex="1" parent="zkfFHV4jXpPFQw0GAbJ--13">
          <mxGeometry y="78" width="160" height="34" as="geometry" />
        </mxCell>
        <mxCell id="zkfFHV4jXpPFQw0GAbJ--15" value="" style="line;html=1;strokeWidth=1;align=left;verticalAlign=middle;spacingTop=-1;spacingLeft=3;spacingRight=3;rotatable=0;labelPosition=right;points=[];portConstraint=eastwest;" parent="zkfFHV4jXpPFQw0GAbJ--13" vertex="1">
          <mxGeometry y="112" width="160" height="2" as="geometry" />
        </mxCell>
        <mxCell id="ITSwiidnPCKGS9sClgnD-28" value="Release(){引用计数-1）" style="text;align=left;verticalAlign=top;spacingLeft=4;spacingRight=4;overflow=hidden;rotatable=0;points=[[0,0.5],[1,0.5]];portConstraint=eastwest;" vertex="1" parent="zkfFHV4jXpPFQw0GAbJ--13">
          <mxGeometry y="114" width="160" height="34" as="geometry" />
        </mxCell>
        <mxCell id="zkfFHV4jXpPFQw0GAbJ--16" value="" style="endArrow=block;endSize=10;endFill=0;shadow=0;strokeWidth=1;rounded=0;edgeStyle=elbowEdgeStyle;elbow=vertical;entryX=0.5;entryY=1;entryDx=0;entryDy=0;" parent="WIyWlLk6GJQsqaUBKTNV-1" source="zkfFHV4jXpPFQw0GAbJ--13" target="ITSwiidnPCKGS9sClgnD-0" edge="1">
          <mxGeometry width="160" relative="1" as="geometry">
            <mxPoint x="110" y="339" as="sourcePoint" />
            <mxPoint x="210" y="237" as="targetPoint" />
            <Array as="points">
              <mxPoint x="720" y="276" />
            </Array>
          </mxGeometry>
        </mxCell>
        <mxCell id="zkfFHV4jXpPFQw0GAbJ--17" value="CCSpriteFrame" style="swimlane;fontStyle=0;align=center;verticalAlign=top;childLayout=stackLayout;horizontal=1;startSize=26;horizontalStack=0;resizeParent=1;resizeLast=0;collapsible=1;marginBottom=0;rounded=0;shadow=0;strokeWidth=1;" parent="WIyWlLk6GJQsqaUBKTNV-1" vertex="1">
          <mxGeometry x="390" y="86" width="160" height="124" as="geometry">
            <mxRectangle x="550" y="140" width="160" height="26" as="alternateBounds" />
          </mxGeometry>
        </mxCell>
        <mxCell id="zkfFHV4jXpPFQw0GAbJ--18" value="_iSprite" style="text;align=left;verticalAlign=top;spacingLeft=4;spacingRight=4;overflow=hidden;rotatable=0;points=[[0,0.5],[1,0.5]];portConstraint=eastwest;" parent="zkfFHV4jXpPFQw0GAbJ--17" vertex="1">
          <mxGeometry y="26" width="160" height="24" as="geometry" />
        </mxCell>
        <mxCell id="ITSwiidnPCKGS9sClgnD-107" value="_importCreated" style="text;align=left;verticalAlign=top;spacingLeft=4;spacingRight=4;overflow=hidden;rotatable=0;points=[[0,0.5],[1,0.5]];portConstraint=eastwest;fontColor=#FF3333;" vertex="1" parent="zkfFHV4jXpPFQw0GAbJ--17">
          <mxGeometry y="50" width="160" height="24" as="geometry" />
        </mxCell>
        <mxCell id="zkfFHV4jXpPFQw0GAbJ--23" value="" style="line;html=1;strokeWidth=1;align=left;verticalAlign=middle;spacingTop=-1;spacingLeft=3;spacingRight=3;rotatable=0;labelPosition=right;points=[];portConstraint=eastwest;" parent="zkfFHV4jXpPFQw0GAbJ--17" vertex="1">
          <mxGeometry y="74" width="160" height="16" as="geometry" />
        </mxCell>
        <mxCell id="ITSwiidnPCKGS9sClgnD-24" value="Dispose()" style="text;align=left;verticalAlign=top;spacingLeft=4;spacingRight=4;overflow=hidden;rotatable=0;points=[[0,0.5],[1,0.5]];portConstraint=eastwest;" vertex="1" parent="zkfFHV4jXpPFQw0GAbJ--17">
          <mxGeometry y="90" width="160" height="26" as="geometry" />
        </mxCell>
        <mxCell id="zkfFHV4jXpPFQw0GAbJ--26" value="" style="endArrow=open;shadow=0;strokeWidth=1;rounded=0;endFill=1;edgeStyle=elbowEdgeStyle;elbow=vertical;" parent="WIyWlLk6GJQsqaUBKTNV-1" source="zkfFHV4jXpPFQw0GAbJ--0" target="zkfFHV4jXpPFQw0GAbJ--17" edge="1">
          <mxGeometry x="0.5" y="41" relative="1" as="geometry">
            <mxPoint x="280" y="158" as="sourcePoint" />
            <mxPoint x="440" y="158" as="targetPoint" />
            <mxPoint x="-40" y="32" as="offset" />
          </mxGeometry>
        </mxCell>
        <mxCell id="zkfFHV4jXpPFQw0GAbJ--27" value="1" style="resizable=0;align=left;verticalAlign=bottom;labelBackgroundColor=none;fontSize=12;" parent="zkfFHV4jXpPFQw0GAbJ--26" connectable="0" vertex="1">
          <mxGeometry x="-1" relative="1" as="geometry">
            <mxPoint y="4" as="offset" />
          </mxGeometry>
        </mxCell>
        <mxCell id="zkfFHV4jXpPFQw0GAbJ--28" value="1" style="resizable=0;align=right;verticalAlign=bottom;labelBackgroundColor=none;fontSize=12;" parent="zkfFHV4jXpPFQw0GAbJ--26" connectable="0" vertex="1">
          <mxGeometry x="1" relative="1" as="geometry">
            <mxPoint x="-7" y="4" as="offset" />
          </mxGeometry>
        </mxCell>
        <mxCell id="zkfFHV4jXpPFQw0GAbJ--29" value="lives at" style="text;html=1;resizable=0;points=[];;align=center;verticalAlign=middle;labelBackgroundColor=none;rounded=0;shadow=0;strokeWidth=1;fontSize=12;" parent="zkfFHV4jXpPFQw0GAbJ--26" vertex="1" connectable="0">
          <mxGeometry x="0.5" y="49" relative="1" as="geometry">
            <mxPoint x="-38" y="40" as="offset" />
          </mxGeometry>
        </mxCell>
        <mxCell id="ITSwiidnPCKGS9sClgnD-0" value="ISprite&#xa;" style="swimlane;fontStyle=0;align=center;verticalAlign=top;childLayout=stackLayout;horizontal=1;startSize=26;horizontalStack=0;resizeParent=1;resizeLast=0;collapsible=1;marginBottom=0;rounded=0;shadow=0;strokeWidth=1;" vertex="1" parent="WIyWlLk6GJQsqaUBKTNV-1">
          <mxGeometry x="620" y="86" width="160" height="110" as="geometry">
            <mxRectangle x="550" y="140" width="160" height="26" as="alternateBounds" />
          </mxGeometry>
        </mxCell>
        <mxCell id="ITSwiidnPCKGS9sClgnD-1" value="GetSprite" style="text;align=left;verticalAlign=top;spacingLeft=4;spacingRight=4;overflow=hidden;rotatable=0;points=[[0,0.5],[1,0.5]];portConstraint=eastwest;" vertex="1" parent="ITSwiidnPCKGS9sClgnD-0">
          <mxGeometry y="26" width="160" height="26" as="geometry" />
        </mxCell>
        <mxCell id="ITSwiidnPCKGS9sClgnD-2" value="" style="line;html=1;strokeWidth=1;align=left;verticalAlign=middle;spacingTop=-1;spacingLeft=3;spacingRight=3;rotatable=0;labelPosition=right;points=[];portConstraint=eastwest;" vertex="1" parent="ITSwiidnPCKGS9sClgnD-0">
          <mxGeometry y="52" width="160" height="8" as="geometry" />
        </mxCell>
        <mxCell id="ITSwiidnPCKGS9sClgnD-23" value="Release()" style="text;align=left;verticalAlign=top;spacingLeft=4;spacingRight=4;overflow=hidden;rotatable=0;points=[[0,0.5],[1,0.5]];portConstraint=eastwest;" vertex="1" parent="ITSwiidnPCKGS9sClgnD-0">
          <mxGeometry y="60" width="160" height="26" as="geometry" />
        </mxCell>
        <mxCell id="ITSwiidnPCKGS9sClgnD-4" style="edgeStyle=orthogonalEdgeStyle;rounded=0;orthogonalLoop=1;jettySize=auto;html=1;exitX=1;exitY=0.5;exitDx=0;exitDy=0;entryX=0.01;entryY=0.411;entryDx=0;entryDy=0;entryPerimeter=0;" edge="1" parent="WIyWlLk6GJQsqaUBKTNV-1" source="zkfFHV4jXpPFQw0GAbJ--18" target="ITSwiidnPCKGS9sClgnD-2">
          <mxGeometry relative="1" as="geometry">
            <mxPoint x="600" y="116" as="targetPoint" />
            <Array as="points">
              <mxPoint x="550" y="141" />
            </Array>
          </mxGeometry>
        </mxCell>
        <object label="" id="ITSwiidnPCKGS9sClgnD-10">
          <mxCell style="edgeStyle=orthogonalEdgeStyle;rounded=0;orthogonalLoop=1;jettySize=auto;html=1;entryX=0;entryY=0.154;entryDx=0;entryDy=0;entryPerimeter=0;exitX=1;exitY=0.5;exitDx=0;exitDy=0;" edge="1" parent="WIyWlLk6GJQsqaUBKTNV-1" source="ITSwiidnPCKGS9sClgnD-9" target="zkfFHV4jXpPFQw0GAbJ--14">
            <mxGeometry relative="1" as="geometry" />
          </mxCell>
        </object>
        <mxCell id="ITSwiidnPCKGS9sClgnD-13" style="edgeStyle=orthogonalEdgeStyle;rounded=0;orthogonalLoop=1;jettySize=auto;html=1;exitX=0.5;exitY=1;exitDx=0;exitDy=0;entryX=0.5;entryY=0;entryDx=0;entryDy=0;entryPerimeter=0;" edge="1" parent="WIyWlLk6GJQsqaUBKTNV-1" source="ITSwiidnPCKGS9sClgnD-5" target="ITSwiidnPCKGS9sClgnD-12">
          <mxGeometry relative="1" as="geometry" />
        </mxCell>
        <mxCell id="ITSwiidnPCKGS9sClgnD-5" value="CocosPListSprite" style="swimlane;fontStyle=0;align=center;verticalAlign=top;childLayout=stackLayout;horizontal=1;startSize=26;horizontalStack=0;resizeParent=1;resizeLast=0;collapsible=1;marginBottom=0;rounded=0;shadow=0;strokeWidth=1;fillColor=#d5e8d4;strokeColor=#82b366;" vertex="1" parent="WIyWlLk6GJQsqaUBKTNV-1">
          <mxGeometry x="380" y="600" width="160" height="120" as="geometry">
            <mxRectangle x="340" y="380" width="170" height="26" as="alternateBounds" />
          </mxGeometry>
        </mxCell>
        <mxCell id="ITSwiidnPCKGS9sClgnD-6" value="_refCount" style="text;align=left;verticalAlign=top;spacingLeft=4;spacingRight=4;overflow=hidden;rotatable=0;points=[[0,0.5],[1,0.5]];portConstraint=eastwest;" vertex="1" parent="ITSwiidnPCKGS9sClgnD-5">
          <mxGeometry y="26" width="160" height="26" as="geometry" />
        </mxCell>
        <mxCell id="ITSwiidnPCKGS9sClgnD-7" value="" style="line;html=1;strokeWidth=1;align=left;verticalAlign=middle;spacingTop=-1;spacingLeft=3;spacingRight=3;rotatable=0;labelPosition=right;points=[];portConstraint=eastwest;" vertex="1" parent="ITSwiidnPCKGS9sClgnD-5">
          <mxGeometry y="52" width="160" height="8" as="geometry" />
        </mxCell>
        <mxCell id="ITSwiidnPCKGS9sClgnD-9" value="PListSpriteFrame[5000]" style="text;align=left;verticalAlign=top;spacingLeft=4;spacingRight=4;overflow=hidden;rotatable=0;points=[[0,0.5],[1,0.5]];portConstraint=eastwest;" vertex="1" parent="ITSwiidnPCKGS9sClgnD-5">
          <mxGeometry y="60" width="160" height="26" as="geometry" />
        </mxCell>
        <mxCell id="ITSwiidnPCKGS9sClgnD-12" value=".plist" style="shape=cylinder3;whiteSpace=wrap;html=1;boundedLbl=1;backgroundOutline=1;size=15;fillColor=#d5e8d4;strokeColor=#82b366;" vertex="1" parent="WIyWlLk6GJQsqaUBKTNV-1">
          <mxGeometry x="420" y="734" width="60" height="80" as="geometry" />
        </mxCell>
        <mxCell id="ITSwiidnPCKGS9sClgnD-14" value="对应一个plist图集，目前共有1452个" style="shape=callout;whiteSpace=wrap;html=1;perimeter=calloutPerimeter;position2=0.9;size=30;position=0.93;base=10;align=left;" vertex="1" parent="WIyWlLk6GJQsqaUBKTNV-1">
          <mxGeometry x="450" y="520" width="100" height="80" as="geometry" />
        </mxCell>
        <mxCell id="ITSwiidnPCKGS9sClgnD-22" style="edgeStyle=orthogonalEdgeStyle;rounded=0;orthogonalLoop=1;jettySize=auto;html=1;exitX=1;exitY=0.25;exitDx=0;exitDy=0;entryX=0;entryY=0.25;entryDx=0;entryDy=0;" edge="1" parent="WIyWlLk6GJQsqaUBKTNV-1" source="ITSwiidnPCKGS9sClgnD-18" target="ITSwiidnPCKGS9sClgnD-5">
          <mxGeometry relative="1" as="geometry">
            <Array as="points">
              <mxPoint x="200" y="378" />
              <mxPoint x="200" y="630" />
            </Array>
          </mxGeometry>
        </mxCell>
        <mxCell id="ITSwiidnPCKGS9sClgnD-18" value="CocosPlistRuntimeLoader" style="swimlane;fontStyle=2;align=center;verticalAlign=top;childLayout=stackLayout;horizontal=1;startSize=26;horizontalStack=0;resizeParent=1;resizeLast=0;collapsible=1;marginBottom=0;rounded=0;shadow=0;strokeWidth=1;" vertex="1" parent="WIyWlLk6GJQsqaUBKTNV-1">
          <mxGeometry x="10" y="362" width="160" height="64" as="geometry">
            <mxRectangle x="230" y="140" width="160" height="26" as="alternateBounds" />
          </mxGeometry>
        </mxCell>
        <mxCell id="ITSwiidnPCKGS9sClgnD-20" value="" style="line;html=1;strokeWidth=1;align=left;verticalAlign=middle;spacingTop=-1;spacingLeft=3;spacingRight=3;rotatable=0;labelPosition=right;points=[];portConstraint=eastwest;" vertex="1" parent="ITSwiidnPCKGS9sClgnD-18">
          <mxGeometry y="26" width="160" height="8" as="geometry" />
        </mxCell>
        <mxCell id="ITSwiidnPCKGS9sClgnD-21" value="负责运行时根据png名字，加载&lt;br&gt;CocosPListSprite及其释放" style="shape=callout;whiteSpace=wrap;html=1;perimeter=calloutPerimeter;position2=0.9;size=30;position=0.93;base=10;align=left;" vertex="1" parent="WIyWlLk6GJQsqaUBKTNV-1">
          <mxGeometry x="80" y="246" width="100" height="116" as="geometry" />
        </mxCell>
        <mxCell id="ITSwiidnPCKGS9sClgnD-29" value="导入时由CCSpriteFrameEditorLoader产生实列，&lt;br&gt;运行时由CCSpriteFrameRuntimeLoader产生实例" style="shape=callout;whiteSpace=wrap;html=1;perimeter=calloutPerimeter;position2=0.9;size=30;position=0.93;base=10;align=left;" vertex="1" parent="WIyWlLk6GJQsqaUBKTNV-1">
          <mxGeometry x="320" y="-20" width="230" height="116" as="geometry" />
        </mxCell>
        <mxCell id="ITSwiidnPCKGS9sClgnD-30" value="png散图" style="shape=cylinder3;whiteSpace=wrap;html=1;boundedLbl=1;backgroundOutline=1;size=15;fillColor=#d5e8d4;strokeColor=#82b366;" vertex="1" parent="WIyWlLk6GJQsqaUBKTNV-1">
          <mxGeometry x="290" y="734" width="60" height="80" as="geometry" />
        </mxCell>
        <mxCell id="ITSwiidnPCKGS9sClgnD-31" style="edgeStyle=orthogonalEdgeStyle;rounded=0;orthogonalLoop=1;jettySize=auto;html=1;exitX=0;exitY=0.5;exitDx=0;exitDy=0;entryX=0.5;entryY=0;entryDx=0;entryDy=0;entryPerimeter=0;" edge="1" parent="WIyWlLk6GJQsqaUBKTNV-1" source="zkfFHV4jXpPFQw0GAbJ--7" target="ITSwiidnPCKGS9sClgnD-30">
          <mxGeometry relative="1" as="geometry" />
        </mxCell>
        <mxCell id="ITSwiidnPCKGS9sClgnD-32" value="ccbi导入CCSprite流程：" style="text;html=1;strokeColor=none;fillColor=none;align=center;verticalAlign=middle;whiteSpace=wrap;rounded=0;fontStyle=1" vertex="1" parent="WIyWlLk6GJQsqaUBKTNV-1">
          <mxGeometry y="966" width="150" height="30" as="geometry" />
        </mxCell>
        <mxCell id="ITSwiidnPCKGS9sClgnD-37" value="" style="edgeStyle=orthogonalEdgeStyle;rounded=0;orthogonalLoop=1;jettySize=auto;html=1;" edge="1" parent="WIyWlLk6GJQsqaUBKTNV-1" source="ITSwiidnPCKGS9sClgnD-34" target="ITSwiidnPCKGS9sClgnD-36">
          <mxGeometry relative="1" as="geometry" />
        </mxCell>
        <mxCell id="ITSwiidnPCKGS9sClgnD-34" value="CCSpriteFrameEditorLoader&lt;br&gt;制作实例" style="rounded=1;whiteSpace=wrap;html=1;" vertex="1" parent="WIyWlLk6GJQsqaUBKTNV-1">
          <mxGeometry x="80" y="1135" width="120" height="60" as="geometry" />
        </mxCell>
        <mxCell id="ITSwiidnPCKGS9sClgnD-35" value="&#xa;&lt;span style=&quot;color: rgb(0, 0, 0); font-family: Helvetica; font-size: 12px; font-style: normal; font-variant-ligatures: normal; font-variant-caps: normal; font-weight: 400; letter-spacing: normal; orphans: 2; text-align: center; text-indent: 0px; text-transform: none; widows: 2; word-spacing: 0px; -webkit-text-stroke-width: 0px; background-color: rgb(248, 249, 250); text-decoration-thickness: initial; text-decoration-style: initial; text-decoration-color: initial; float: none; display: inline !important;&quot;&gt;根据输入的png名字，CCSpriteFrameFactory产生唯一的CCSpriteFrame&lt;/span&gt;&#xa;&#xa;" style="shape=note;whiteSpace=wrap;html=1;backgroundOutline=1;darkOpacity=0.05;" vertex="1" parent="WIyWlLk6GJQsqaUBKTNV-1">
          <mxGeometry x="80" y="1006" width="160" height="100" as="geometry" />
        </mxCell>
        <mxCell id="ITSwiidnPCKGS9sClgnD-39" value="" style="edgeStyle=orthogonalEdgeStyle;rounded=0;orthogonalLoop=1;jettySize=auto;html=1;" edge="1" parent="WIyWlLk6GJQsqaUBKTNV-1" source="ITSwiidnPCKGS9sClgnD-36" target="ITSwiidnPCKGS9sClgnD-38">
          <mxGeometry relative="1" as="geometry">
            <Array as="points">
              <mxPoint x="210" y="1306" />
              <mxPoint x="210" y="1306" />
            </Array>
          </mxGeometry>
        </mxCell>
        <mxCell id="ITSwiidnPCKGS9sClgnD-42" value="" style="edgeStyle=orthogonalEdgeStyle;rounded=0;orthogonalLoop=1;jettySize=auto;html=1;" edge="1" parent="WIyWlLk6GJQsqaUBKTNV-1" source="ITSwiidnPCKGS9sClgnD-36" target="ITSwiidnPCKGS9sClgnD-47">
          <mxGeometry relative="1" as="geometry">
            <mxPoint x="140" y="1406" as="targetPoint" />
          </mxGeometry>
        </mxCell>
        <mxCell id="ITSwiidnPCKGS9sClgnD-36" value="是否包含png名字对应的CCSpriteFrame" style="rhombus;whiteSpace=wrap;html=1;rounded=1;" vertex="1" parent="WIyWlLk6GJQsqaUBKTNV-1">
          <mxGeometry x="100" y="1265" width="80" height="80" as="geometry" />
        </mxCell>
        <mxCell id="ITSwiidnPCKGS9sClgnD-38" value="返回CCSpriteFrame" style="whiteSpace=wrap;html=1;rounded=1;" vertex="1" parent="WIyWlLk6GJQsqaUBKTNV-1">
          <mxGeometry x="290" y="1275" width="120" height="60" as="geometry" />
        </mxCell>
        <mxCell id="ITSwiidnPCKGS9sClgnD-40" value="Y" style="text;html=1;strokeColor=none;fillColor=none;align=center;verticalAlign=middle;whiteSpace=wrap;rounded=0;" vertex="1" parent="WIyWlLk6GJQsqaUBKTNV-1">
          <mxGeometry x="190" y="1286" width="60" height="30" as="geometry" />
        </mxCell>
        <mxCell id="ITSwiidnPCKGS9sClgnD-43" value="N" style="text;html=1;strokeColor=none;fillColor=none;align=center;verticalAlign=middle;whiteSpace=wrap;rounded=0;" vertex="1" parent="WIyWlLk6GJQsqaUBKTNV-1">
          <mxGeometry x="110" y="1366" width="60" height="30" as="geometry" />
        </mxCell>
        <mxCell id="ITSwiidnPCKGS9sClgnD-50" value="" style="edgeStyle=orthogonalEdgeStyle;rounded=0;orthogonalLoop=1;jettySize=auto;html=1;startArrow=none;" edge="1" parent="WIyWlLk6GJQsqaUBKTNV-1" source="ITSwiidnPCKGS9sClgnD-51" target="ITSwiidnPCKGS9sClgnD-49">
          <mxGeometry relative="1" as="geometry" />
        </mxCell>
        <mxCell id="ITSwiidnPCKGS9sClgnD-54" value="" style="edgeStyle=orthogonalEdgeStyle;rounded=0;orthogonalLoop=1;jettySize=auto;html=1;" edge="1" parent="WIyWlLk6GJQsqaUBKTNV-1" source="ITSwiidnPCKGS9sClgnD-47" target="ITSwiidnPCKGS9sClgnD-53">
          <mxGeometry relative="1" as="geometry" />
        </mxCell>
        <mxCell id="ITSwiidnPCKGS9sClgnD-47" value="图集包含该名字" style="rhombus;whiteSpace=wrap;html=1;rounded=1;" vertex="1" parent="WIyWlLk6GJQsqaUBKTNV-1">
          <mxGeometry x="100" y="1426" width="80" height="80" as="geometry" />
        </mxCell>
        <mxCell id="ITSwiidnPCKGS9sClgnD-60" value="" style="edgeStyle=orthogonalEdgeStyle;rounded=0;orthogonalLoop=1;jettySize=auto;html=1;" edge="1" parent="WIyWlLk6GJQsqaUBKTNV-1" source="ITSwiidnPCKGS9sClgnD-49" target="ITSwiidnPCKGS9sClgnD-59">
          <mxGeometry relative="1" as="geometry" />
        </mxCell>
        <mxCell id="ITSwiidnPCKGS9sClgnD-49" value="加载散图png的sprite，&lt;br&gt;&lt;span style=&quot;&quot;&gt;new一个&lt;/span&gt;&lt;span style=&quot;&quot;&gt;SingleSprite&lt;/span&gt;" style="whiteSpace=wrap;html=1;rounded=1;align=left;" vertex="1" parent="WIyWlLk6GJQsqaUBKTNV-1">
          <mxGeometry x="80" y="1596" width="120" height="60" as="geometry" />
        </mxCell>
        <mxCell id="ITSwiidnPCKGS9sClgnD-51" value="N" style="text;html=1;strokeColor=none;fillColor=none;align=center;verticalAlign=middle;whiteSpace=wrap;rounded=0;" vertex="1" parent="WIyWlLk6GJQsqaUBKTNV-1">
          <mxGeometry x="110" y="1526" width="60" height="30" as="geometry" />
        </mxCell>
        <mxCell id="ITSwiidnPCKGS9sClgnD-52" value="" style="edgeStyle=orthogonalEdgeStyle;rounded=0;orthogonalLoop=1;jettySize=auto;html=1;endArrow=none;" edge="1" parent="WIyWlLk6GJQsqaUBKTNV-1" source="ITSwiidnPCKGS9sClgnD-47" target="ITSwiidnPCKGS9sClgnD-51">
          <mxGeometry relative="1" as="geometry">
            <mxPoint x="140" y="1506" as="sourcePoint" />
            <mxPoint x="140" y="1596" as="targetPoint" />
          </mxGeometry>
        </mxCell>
        <mxCell id="ITSwiidnPCKGS9sClgnD-58" value="" style="edgeStyle=orthogonalEdgeStyle;rounded=0;orthogonalLoop=1;jettySize=auto;html=1;" edge="1" parent="WIyWlLk6GJQsqaUBKTNV-1" source="ITSwiidnPCKGS9sClgnD-53" target="ITSwiidnPCKGS9sClgnD-57">
          <mxGeometry relative="1" as="geometry" />
        </mxCell>
        <mxCell id="ITSwiidnPCKGS9sClgnD-53" value="&lt;span style=&quot;font-style: italic;&quot;&gt;CocosPlistEditorLoader&lt;br&gt;返回PlistSpriteFrame，&lt;br&gt;对引用计数+1，&lt;br&gt;同时把对应的&lt;/span&gt;&lt;span style=&quot;&quot;&gt;CocosPListSprite引用计数+1&lt;/span&gt;&lt;span style=&quot;font-style: italic;&quot;&gt;&lt;br&gt;&lt;/span&gt;" style="whiteSpace=wrap;html=1;rounded=1;align=left;" vertex="1" parent="WIyWlLk6GJQsqaUBKTNV-1">
          <mxGeometry x="300" y="1411" width="240" height="110" as="geometry" />
        </mxCell>
        <mxCell id="ITSwiidnPCKGS9sClgnD-55" value="Y" style="text;html=1;strokeColor=none;fillColor=none;align=center;verticalAlign=middle;whiteSpace=wrap;rounded=0;" vertex="1" parent="WIyWlLk6GJQsqaUBKTNV-1">
          <mxGeometry x="190" y="1436" width="60" height="30" as="geometry" />
        </mxCell>
        <mxCell id="ITSwiidnPCKGS9sClgnD-56" value="PListSpriteFrame" style="shape=note;whiteSpace=wrap;html=1;backgroundOutline=1;darkOpacity=0.05;" vertex="1" parent="WIyWlLk6GJQsqaUBKTNV-1">
          <mxGeometry x="440" y="1035" width="160" height="100" as="geometry" />
        </mxCell>
        <mxCell id="ITSwiidnPCKGS9sClgnD-57" value="new一个CCSpriteFrame，并包含PlistSpriteFrame" style="whiteSpace=wrap;html=1;align=left;rounded=1;" vertex="1" parent="WIyWlLk6GJQsqaUBKTNV-1">
          <mxGeometry x="360" y="1716" width="120" height="60" as="geometry" />
        </mxCell>
        <mxCell id="ITSwiidnPCKGS9sClgnD-59" value="&lt;br&gt;&lt;span style=&quot;color: rgb(0, 0, 0); font-family: Helvetica; font-size: 12px; font-style: normal; font-variant-ligatures: normal; font-variant-caps: normal; font-weight: 400; letter-spacing: normal; orphans: 2; text-align: left; text-indent: 0px; text-transform: none; widows: 2; word-spacing: 0px; -webkit-text-stroke-width: 0px; background-color: rgb(248, 249, 250); text-decoration-thickness: initial; text-decoration-style: initial; text-decoration-color: initial; float: none; display: inline !important;&quot;&gt;new一个CCSpriteFrame，并包含SingleSprite&lt;/span&gt;&lt;br&gt;" style="whiteSpace=wrap;html=1;rounded=1;" vertex="1" parent="WIyWlLk6GJQsqaUBKTNV-1">
          <mxGeometry x="80" y="1716" width="120" height="60" as="geometry" />
        </mxCell>
        <mxCell id="ITSwiidnPCKGS9sClgnD-61" value="ccbi导入CCSprite流程用例：" style="text;html=1;strokeColor=none;fillColor=none;align=center;verticalAlign=middle;whiteSpace=wrap;rounded=0;fontStyle=1" vertex="1" parent="WIyWlLk6GJQsqaUBKTNV-1">
          <mxGeometry x="10" y="1846" width="180" height="30" as="geometry" />
        </mxCell>
        <mxCell id="ITSwiidnPCKGS9sClgnD-68" style="edgeStyle=orthogonalEdgeStyle;rounded=0;orthogonalLoop=1;jettySize=auto;html=1;exitX=1;exitY=0.5;exitDx=0;exitDy=0;entryX=0;entryY=0.25;entryDx=0;entryDy=0;" edge="1" parent="WIyWlLk6GJQsqaUBKTNV-1" source="ITSwiidnPCKGS9sClgnD-64" target="ITSwiidnPCKGS9sClgnD-66">
          <mxGeometry relative="1" as="geometry" />
        </mxCell>
        <mxCell id="ITSwiidnPCKGS9sClgnD-64" value="&lt;p style=&quot;margin:0px;margin-top:6px;text-align:center;&quot;&gt;&lt;b&gt;A.ccbi&lt;/b&gt;&lt;/p&gt;&lt;hr&gt;&lt;p style=&quot;margin:0px;margin-left:8px;&quot;&gt;+ c1: CCSprite&lt;br&gt;+ c2: CCSprite&lt;/p&gt;" style="align=left;overflow=fill;html=1;dropTarget=0;" vertex="1" parent="WIyWlLk6GJQsqaUBKTNV-1">
          <mxGeometry x="20" y="1906" width="180" height="90" as="geometry" />
        </mxCell>
        <mxCell id="ITSwiidnPCKGS9sClgnD-65" value="" style="shape=component;jettyWidth=8;jettyHeight=4;" vertex="1" parent="ITSwiidnPCKGS9sClgnD-64">
          <mxGeometry x="1" width="20" height="20" relative="1" as="geometry">
            <mxPoint x="-24" y="4" as="offset" />
          </mxGeometry>
        </mxCell>
        <mxCell id="ITSwiidnPCKGS9sClgnD-73" style="edgeStyle=orthogonalEdgeStyle;rounded=0;orthogonalLoop=1;jettySize=auto;html=1;entryX=0;entryY=0.25;entryDx=0;entryDy=0;" edge="1" parent="WIyWlLk6GJQsqaUBKTNV-1" source="ITSwiidnPCKGS9sClgnD-66" target="ITSwiidnPCKGS9sClgnD-71">
          <mxGeometry relative="1" as="geometry" />
        </mxCell>
        <mxCell id="ITSwiidnPCKGS9sClgnD-66" value="&lt;p style=&quot;margin:0px;margin-top:6px;text-align:center;&quot;&gt;&lt;b&gt;CCSpriteFrame&lt;/b&gt;&lt;/p&gt;&lt;hr&gt;&lt;p style=&quot;margin:0px;margin-left:8px;&quot;&gt;+ c1: PListSpriteFrame&lt;br&gt;&lt;br&gt;&lt;/p&gt;" style="align=left;overflow=fill;html=1;dropTarget=0;" vertex="1" parent="WIyWlLk6GJQsqaUBKTNV-1">
          <mxGeometry x="300" y="1926" width="180" height="54" as="geometry" />
        </mxCell>
        <mxCell id="ITSwiidnPCKGS9sClgnD-67" value="" style="shape=component;jettyWidth=8;jettyHeight=4;" vertex="1" parent="ITSwiidnPCKGS9sClgnD-66">
          <mxGeometry x="1" width="20" height="20" relative="1" as="geometry">
            <mxPoint x="-24" y="4" as="offset" />
          </mxGeometry>
        </mxCell>
        <mxCell id="ITSwiidnPCKGS9sClgnD-69" style="edgeStyle=orthogonalEdgeStyle;rounded=0;orthogonalLoop=1;jettySize=auto;html=1;exitX=1.002;exitY=0.659;exitDx=0;exitDy=0;entryX=0;entryY=0.25;entryDx=0;entryDy=0;exitPerimeter=0;" edge="1" parent="WIyWlLk6GJQsqaUBKTNV-1" source="ITSwiidnPCKGS9sClgnD-64" target="ITSwiidnPCKGS9sClgnD-103">
          <mxGeometry relative="1" as="geometry">
            <mxPoint x="220" y="1961" as="sourcePoint" />
            <mxPoint x="310" y="1938.5" as="targetPoint" />
          </mxGeometry>
        </mxCell>
        <mxCell id="ITSwiidnPCKGS9sClgnD-71" value="&lt;p style=&quot;margin:0px;margin-top:6px;text-align:center;&quot;&gt;&lt;b&gt;PListSpriteFrame（&quot;S1&quot;）&lt;/b&gt;&lt;/p&gt;&lt;hr&gt;&lt;p style=&quot;margin:0px;margin-left:8px;&quot;&gt;+ _refCount: int&lt;font color=&quot;#ff6666&quot;&gt;（不能存档）&lt;/font&gt;&lt;br&gt;&lt;br&gt;&lt;/p&gt;" style="align=left;overflow=fill;html=1;dropTarget=0;" vertex="1" parent="WIyWlLk6GJQsqaUBKTNV-1">
          <mxGeometry x="560" y="1966" width="180" height="90" as="geometry" />
        </mxCell>
        <mxCell id="ITSwiidnPCKGS9sClgnD-72" value="" style="shape=component;jettyWidth=8;jettyHeight=4;" vertex="1" parent="ITSwiidnPCKGS9sClgnD-71">
          <mxGeometry x="1" width="20" height="20" relative="1" as="geometry">
            <mxPoint x="-24" y="4" as="offset" />
          </mxGeometry>
        </mxCell>
        <mxCell id="ITSwiidnPCKGS9sClgnD-74" value="CCSpriteFrame4个实列，被3个ccbi引用了4次，存到ccbi上" style="text;html=1;strokeColor=none;fillColor=none;align=left;verticalAlign=middle;whiteSpace=wrap;rounded=0;" vertex="1" parent="WIyWlLk6GJQsqaUBKTNV-1">
          <mxGeometry x="240" y="1886" width="340" height="40" as="geometry" />
        </mxCell>
        <mxCell id="ITSwiidnPCKGS9sClgnD-77" style="edgeStyle=orthogonalEdgeStyle;rounded=0;orthogonalLoop=1;jettySize=auto;html=1;exitX=1;exitY=0.5;exitDx=0;exitDy=0;entryX=0;entryY=0.25;entryDx=0;entryDy=0;" edge="1" parent="WIyWlLk6GJQsqaUBKTNV-1" source="ITSwiidnPCKGS9sClgnD-75" target="ITSwiidnPCKGS9sClgnD-92">
          <mxGeometry relative="1" as="geometry" />
        </mxCell>
        <mxCell id="ITSwiidnPCKGS9sClgnD-75" value="&lt;p style=&quot;margin:0px;margin-top:6px;text-align:center;&quot;&gt;&lt;b&gt;B.ccbi&lt;/b&gt;&lt;/p&gt;&lt;hr&gt;&lt;p style=&quot;margin:0px;margin-left:8px;&quot;&gt;+ c1: CCSprite&lt;br&gt;&lt;/p&gt;" style="align=left;overflow=fill;html=1;dropTarget=0;" vertex="1" parent="WIyWlLk6GJQsqaUBKTNV-1">
          <mxGeometry x="20" y="2046" width="180" height="90" as="geometry" />
        </mxCell>
        <mxCell id="ITSwiidnPCKGS9sClgnD-76" value="" style="shape=component;jettyWidth=8;jettyHeight=4;" vertex="1" parent="ITSwiidnPCKGS9sClgnD-75">
          <mxGeometry x="1" width="20" height="20" relative="1" as="geometry">
            <mxPoint x="-24" y="4" as="offset" />
          </mxGeometry>
        </mxCell>
        <mxCell id="ITSwiidnPCKGS9sClgnD-82" style="edgeStyle=orthogonalEdgeStyle;rounded=0;orthogonalLoop=1;jettySize=auto;html=1;entryX=0;entryY=0.25;entryDx=0;entryDy=0;" edge="1" parent="WIyWlLk6GJQsqaUBKTNV-1" source="ITSwiidnPCKGS9sClgnD-78" target="ITSwiidnPCKGS9sClgnD-80">
          <mxGeometry relative="1" as="geometry" />
        </mxCell>
        <mxCell id="ITSwiidnPCKGS9sClgnD-78" value="&lt;p style=&quot;margin:0px;margin-top:6px;text-align:center;&quot;&gt;&lt;b&gt;C.ccbi&lt;/b&gt;&lt;/p&gt;&lt;hr&gt;&lt;p style=&quot;margin:0px;margin-left:8px;&quot;&gt;+ c1: CCSprite&lt;br&gt;&lt;/p&gt;" style="align=left;overflow=fill;html=1;dropTarget=0;" vertex="1" parent="WIyWlLk6GJQsqaUBKTNV-1">
          <mxGeometry x="20" y="2176" width="180" height="90" as="geometry" />
        </mxCell>
        <mxCell id="ITSwiidnPCKGS9sClgnD-79" value="" style="shape=component;jettyWidth=8;jettyHeight=4;" vertex="1" parent="ITSwiidnPCKGS9sClgnD-78">
          <mxGeometry x="1" width="20" height="20" relative="1" as="geometry">
            <mxPoint x="-24" y="4" as="offset" />
          </mxGeometry>
        </mxCell>
        <mxCell id="ITSwiidnPCKGS9sClgnD-83" style="edgeStyle=orthogonalEdgeStyle;rounded=0;orthogonalLoop=1;jettySize=auto;html=1;entryX=0.25;entryY=1;entryDx=0;entryDy=0;" edge="1" parent="WIyWlLk6GJQsqaUBKTNV-1" source="ITSwiidnPCKGS9sClgnD-80" target="ITSwiidnPCKGS9sClgnD-71">
          <mxGeometry relative="1" as="geometry" />
        </mxCell>
        <mxCell id="ITSwiidnPCKGS9sClgnD-80" value="&lt;p style=&quot;margin:0px;margin-top:6px;text-align:center;&quot;&gt;&lt;b&gt;CCSpriteFrame&lt;/b&gt;&lt;/p&gt;&lt;hr&gt;&lt;p style=&quot;margin:0px;margin-left:8px;&quot;&gt;+ c1: PListSpriteFrame&lt;br&gt;&lt;br&gt;&lt;/p&gt;" style="align=left;overflow=fill;html=1;dropTarget=0;" vertex="1" parent="WIyWlLk6GJQsqaUBKTNV-1">
          <mxGeometry x="290" y="2176" width="180" height="54" as="geometry" />
        </mxCell>
        <mxCell id="ITSwiidnPCKGS9sClgnD-81" value="" style="shape=component;jettyWidth=8;jettyHeight=4;" vertex="1" parent="ITSwiidnPCKGS9sClgnD-80">
          <mxGeometry x="1" width="20" height="20" relative="1" as="geometry">
            <mxPoint x="-24" y="4" as="offset" />
          </mxGeometry>
        </mxCell>
        <mxCell id="ITSwiidnPCKGS9sClgnD-84" value="CCSpriteFrame一个实列，被1个ccbi引用了1次，" style="text;html=1;strokeColor=none;fillColor=none;align=left;verticalAlign=middle;whiteSpace=wrap;rounded=0;" vertex="1" parent="WIyWlLk6GJQsqaUBKTNV-1">
          <mxGeometry x="270" y="2126" width="300" height="40" as="geometry" />
        </mxCell>
        <mxCell id="ITSwiidnPCKGS9sClgnD-85" value="PListSpriteFrame计数一直为0" style="text;html=1;strokeColor=none;fillColor=none;align=left;verticalAlign=middle;whiteSpace=wrap;rounded=0;" vertex="1" parent="WIyWlLk6GJQsqaUBKTNV-1">
          <mxGeometry x="600" y="1916" width="120" height="40" as="geometry" />
        </mxCell>
        <mxCell id="ITSwiidnPCKGS9sClgnD-86" value="运行时动态创建CCSprite流程：" style="text;html=1;strokeColor=none;fillColor=none;align=center;verticalAlign=middle;whiteSpace=wrap;rounded=0;fontStyle=1" vertex="1" parent="WIyWlLk6GJQsqaUBKTNV-1">
          <mxGeometry x="20" y="2650" width="180" height="30" as="geometry" />
        </mxCell>
        <mxCell id="ITSwiidnPCKGS9sClgnD-87" value="&lt;div style=&quot;text-align: left;&quot;&gt;&lt;font color=&quot;#ff3333&quot;&gt;跟导入时流程一致，只是把2个EditorLoader替换成RunTimeLoader&lt;/font&gt;&lt;/div&gt;" style="shape=note;whiteSpace=wrap;html=1;backgroundOutline=1;darkOpacity=0.05;fontColor=#FFCCCC;" vertex="1" parent="WIyWlLk6GJQsqaUBKTNV-1">
          <mxGeometry x="70" y="2690" width="160" height="100" as="geometry" />
        </mxCell>
        <mxCell id="ITSwiidnPCKGS9sClgnD-88" value="运行时动态创建CCSprite流程用例(加载图片“S1”)：" style="text;html=1;strokeColor=none;fillColor=none;align=center;verticalAlign=middle;whiteSpace=wrap;rounded=0;fontStyle=1" vertex="1" parent="WIyWlLk6GJQsqaUBKTNV-1">
          <mxGeometry x="20" y="2808" width="310" height="30" as="geometry" />
        </mxCell>
        <mxCell id="ITSwiidnPCKGS9sClgnD-96" value="" style="edgeStyle=orthogonalEdgeStyle;rounded=0;orthogonalLoop=1;jettySize=auto;html=1;fontColor=#000000;entryX=0.5;entryY=0;entryDx=0;entryDy=0;" edge="1" parent="WIyWlLk6GJQsqaUBKTNV-1" source="ITSwiidnPCKGS9sClgnD-89" target="ITSwiidnPCKGS9sClgnD-108">
          <mxGeometry relative="1" as="geometry" />
        </mxCell>
        <mxCell id="ITSwiidnPCKGS9sClgnD-89" value="CocosPistRuntimeLoader&lt;br&gt;从磁盘加载PListSpriteFrame&lt;br&gt;（注意此时S1的引用计数为4）" style="rounded=1;whiteSpace=wrap;html=1;fontColor=#000000;" vertex="1" parent="WIyWlLk6GJQsqaUBKTNV-1">
          <mxGeometry x="50" y="2868" width="180" height="60" as="geometry" />
        </mxCell>
        <mxCell id="ITSwiidnPCKGS9sClgnD-91" value="&lt;div style=&quot;text-align: left;&quot;&gt;&lt;font color=&quot;#ff3333&quot;&gt;PlistSpriteFrame的引用计数计算如下：&lt;/font&gt;&lt;/div&gt;&lt;div style=&quot;text-align: left;&quot;&gt;&lt;font color=&quot;#000000&quot;&gt;1.当A.ccbi被加载时，触发CCSprite的awake&lt;/font&gt;&lt;/div&gt;&lt;div style=&quot;text-align: left;&quot;&gt;&lt;font color=&quot;#000000&quot;&gt;2.CCSprite.awake,调用CCSpriteFrame的OnAwake()&lt;/font&gt;&lt;/div&gt;&lt;div style=&quot;text-align: left;&quot;&gt;&lt;font color=&quot;#000000&quot;&gt;3.CCSpriteFrame的OnAwake（）发现_importCreated为真，触发PListSpriteFrame计数+1&lt;/font&gt;&lt;/div&gt;&lt;div style=&quot;text-align: left;&quot;&gt;&lt;font color=&quot;#000000&quot;&gt;4.3个ccbi都将加载后，最终“S1”的引用计数变为4.&lt;/font&gt;&lt;/div&gt;&lt;div style=&quot;text-align: left;&quot;&gt;&lt;font color=&quot;#000000&quot;&gt;&lt;br&gt;&lt;/font&gt;&lt;/div&gt;&lt;div style=&quot;text-align: left;&quot;&gt;&lt;font color=&quot;#000000&quot;&gt;5.当A.ccbi被卸载时，触发CCSprite的onDestory，&lt;/font&gt;&lt;/div&gt;&lt;div style=&quot;text-align: left;&quot;&gt;&lt;font color=&quot;#000000&quot;&gt;6.进而触发CCSpriteFrame的OnDestory（），&lt;/font&gt;&lt;/div&gt;&lt;div style=&quot;text-align: left;&quot;&gt;&lt;font color=&quot;#000000&quot;&gt;7.进而再触发PlistSpriteFrame计数-1.&lt;/font&gt;&lt;/div&gt;&lt;div style=&quot;text-align: left;&quot;&gt;&lt;span style=&quot;color: rgb(0, 0, 0);&quot;&gt;8.3个ccbi都将卸载后，最终“S1”的引用计数变为0.&lt;/span&gt;&lt;/div&gt;&lt;div style=&quot;text-align: left;&quot;&gt;&lt;font color=&quot;#000000&quot;&gt;当计数为0时，尝试触发Plist的卸载&lt;/font&gt;&lt;/div&gt;" style="shape=note;whiteSpace=wrap;html=1;backgroundOutline=1;darkOpacity=0.05;fontColor=#FFCCCC;" vertex="1" parent="WIyWlLk6GJQsqaUBKTNV-1">
          <mxGeometry x="20" y="2304" width="540" height="202" as="geometry" />
        </mxCell>
        <mxCell id="ITSwiidnPCKGS9sClgnD-94" style="edgeStyle=orthogonalEdgeStyle;rounded=0;orthogonalLoop=1;jettySize=auto;html=1;exitX=1;exitY=0.5;exitDx=0;exitDy=0;entryX=0.25;entryY=1;entryDx=0;entryDy=0;fontColor=#000000;" edge="1" parent="WIyWlLk6GJQsqaUBKTNV-1" source="ITSwiidnPCKGS9sClgnD-92" target="ITSwiidnPCKGS9sClgnD-71">
          <mxGeometry relative="1" as="geometry" />
        </mxCell>
        <mxCell id="ITSwiidnPCKGS9sClgnD-92" value="&lt;p style=&quot;margin:0px;margin-top:6px;text-align:center;&quot;&gt;&lt;b&gt;CCSpriteFrame&lt;/b&gt;&lt;/p&gt;&lt;hr&gt;&lt;p style=&quot;margin:0px;margin-left:8px;&quot;&gt;+ c1: PListSpriteFrame&lt;br&gt;&lt;br&gt;&lt;/p&gt;" style="align=left;overflow=fill;html=1;dropTarget=0;" vertex="1" parent="WIyWlLk6GJQsqaUBKTNV-1">
          <mxGeometry x="300" y="2082" width="180" height="54" as="geometry" />
        </mxCell>
        <mxCell id="ITSwiidnPCKGS9sClgnD-93" value="" style="shape=component;jettyWidth=8;jettyHeight=4;" vertex="1" parent="ITSwiidnPCKGS9sClgnD-92">
          <mxGeometry x="1" width="20" height="20" relative="1" as="geometry">
            <mxPoint x="-24" y="4" as="offset" />
          </mxGeometry>
        </mxCell>
        <mxCell id="ITSwiidnPCKGS9sClgnD-98" value="" style="edgeStyle=orthogonalEdgeStyle;rounded=0;orthogonalLoop=1;jettySize=auto;html=1;fontColor=#000000;" edge="1" parent="WIyWlLk6GJQsqaUBKTNV-1" source="ITSwiidnPCKGS9sClgnD-95" target="ITSwiidnPCKGS9sClgnD-97">
          <mxGeometry relative="1" as="geometry" />
        </mxCell>
        <mxCell id="ITSwiidnPCKGS9sClgnD-95" value="赋值给CCSpriteFrame内部&lt;br&gt;_importeCreated=false" style="whiteSpace=wrap;html=1;fontColor=#000000;rounded=1;" vertex="1" parent="WIyWlLk6GJQsqaUBKTNV-1">
          <mxGeometry x="80" y="3060" width="120" height="60" as="geometry" />
        </mxCell>
        <mxCell id="ITSwiidnPCKGS9sClgnD-100" value="" style="edgeStyle=orthogonalEdgeStyle;rounded=0;orthogonalLoop=1;jettySize=auto;html=1;fontColor=#000000;" edge="1" parent="WIyWlLk6GJQsqaUBKTNV-1" source="ITSwiidnPCKGS9sClgnD-97" target="ITSwiidnPCKGS9sClgnD-99">
          <mxGeometry relative="1" as="geometry" />
        </mxCell>
        <mxCell id="ITSwiidnPCKGS9sClgnD-97" value="CCSpriteFrame赋值给CCSprite内部" style="whiteSpace=wrap;html=1;fontColor=#000000;rounded=1;" vertex="1" parent="WIyWlLk6GJQsqaUBKTNV-1">
          <mxGeometry x="80" y="3140" width="120" height="60" as="geometry" />
        </mxCell>
        <mxCell id="ITSwiidnPCKGS9sClgnD-102" value="" style="edgeStyle=orthogonalEdgeStyle;rounded=0;orthogonalLoop=1;jettySize=auto;html=1;fontColor=#000000;entryX=0.5;entryY=0;entryDx=0;entryDy=0;" edge="1" parent="WIyWlLk6GJQsqaUBKTNV-1" source="ITSwiidnPCKGS9sClgnD-99" target="ITSwiidnPCKGS9sClgnD-110">
          <mxGeometry relative="1" as="geometry" />
        </mxCell>
        <mxCell id="ITSwiidnPCKGS9sClgnD-99" value="触发CCSprite的Awake" style="whiteSpace=wrap;html=1;fontColor=#000000;rounded=1;" vertex="1" parent="WIyWlLk6GJQsqaUBKTNV-1">
          <mxGeometry x="80" y="3230" width="120" height="60" as="geometry" />
        </mxCell>
        <mxCell id="ITSwiidnPCKGS9sClgnD-101" value="&lt;br&gt;由于_importCreate为false，不会触发引用计数加1" style="ellipse;whiteSpace=wrap;html=1;fontColor=#000000;rounded=1;" vertex="1" parent="WIyWlLk6GJQsqaUBKTNV-1">
          <mxGeometry x="80" y="3400" width="120" height="60" as="geometry" />
        </mxCell>
        <mxCell id="ITSwiidnPCKGS9sClgnD-105" style="edgeStyle=orthogonalEdgeStyle;rounded=0;orthogonalLoop=1;jettySize=auto;html=1;exitX=1;exitY=0.5;exitDx=0;exitDy=0;entryX=0;entryY=0.5;entryDx=0;entryDy=0;fontColor=#000000;" edge="1" parent="WIyWlLk6GJQsqaUBKTNV-1" source="ITSwiidnPCKGS9sClgnD-103" target="ITSwiidnPCKGS9sClgnD-71">
          <mxGeometry relative="1" as="geometry" />
        </mxCell>
        <mxCell id="ITSwiidnPCKGS9sClgnD-103" value="&lt;p style=&quot;margin:0px;margin-top:6px;text-align:center;&quot;&gt;&lt;b&gt;CCSpriteFrame&lt;/b&gt;&lt;/p&gt;&lt;hr&gt;&lt;p style=&quot;margin:0px;margin-left:8px;&quot;&gt;+ c1: PListSpriteFrame&lt;br&gt;&lt;br&gt;&lt;/p&gt;" style="align=left;overflow=fill;html=1;dropTarget=0;" vertex="1" parent="WIyWlLk6GJQsqaUBKTNV-1">
          <mxGeometry x="300" y="1992" width="180" height="54" as="geometry" />
        </mxCell>
        <mxCell id="ITSwiidnPCKGS9sClgnD-104" value="" style="shape=component;jettyWidth=8;jettyHeight=4;" vertex="1" parent="ITSwiidnPCKGS9sClgnD-103">
          <mxGeometry x="1" width="20" height="20" relative="1" as="geometry">
            <mxPoint x="-24" y="4" as="offset" />
          </mxGeometry>
        </mxCell>
        <mxCell id="ITSwiidnPCKGS9sClgnD-106" value="" style="edgeStyle=orthogonalEdgeStyle;rounded=0;orthogonalLoop=1;jettySize=auto;html=1;fontColor=#000000;" edge="1" parent="WIyWlLk6GJQsqaUBKTNV-1" source="ITSwiidnPCKGS9sClgnD-24" target="ITSwiidnPCKGS9sClgnD-23">
          <mxGeometry relative="1" as="geometry" />
        </mxCell>
        <mxCell id="ITSwiidnPCKGS9sClgnD-109" value="" style="edgeStyle=orthogonalEdgeStyle;rounded=0;orthogonalLoop=1;jettySize=auto;html=1;fontColor=#000000;" edge="1" parent="WIyWlLk6GJQsqaUBKTNV-1" source="ITSwiidnPCKGS9sClgnD-108" target="ITSwiidnPCKGS9sClgnD-95">
          <mxGeometry relative="1" as="geometry" />
        </mxCell>
        <mxCell id="ITSwiidnPCKGS9sClgnD-108" value="引用计数+1，变为5&lt;br&gt;" style="whiteSpace=wrap;html=1;fontColor=#000000;rounded=1;" vertex="1" parent="WIyWlLk6GJQsqaUBKTNV-1">
          <mxGeometry x="80" y="2960" width="120" height="60" as="geometry" />
        </mxCell>
        <mxCell id="ITSwiidnPCKGS9sClgnD-111" value="" style="edgeStyle=orthogonalEdgeStyle;rounded=0;orthogonalLoop=1;jettySize=auto;html=1;fontColor=#000000;" edge="1" parent="WIyWlLk6GJQsqaUBKTNV-1" source="ITSwiidnPCKGS9sClgnD-110" target="ITSwiidnPCKGS9sClgnD-101">
          <mxGeometry relative="1" as="geometry" />
        </mxCell>
        <mxCell id="ITSwiidnPCKGS9sClgnD-110" value="触发CCSpriteFrame.OnAwake" style="whiteSpace=wrap;html=1;fontColor=#000000;rounded=1;" vertex="1" parent="WIyWlLk6GJQsqaUBKTNV-1">
          <mxGeometry x="80" y="3310" width="120" height="60" as="geometry" />
        </mxCell>
        <mxCell id="ITSwiidnPCKGS9sClgnD-112" value="运行时动态创建CCSpriteFrame计数流程方案A：" style="text;html=1;strokeColor=none;fillColor=none;align=center;verticalAlign=middle;whiteSpace=wrap;rounded=0;fontStyle=1" vertex="1" parent="WIyWlLk6GJQsqaUBKTNV-1">
          <mxGeometry x="400" y="2808" width="310" height="30" as="geometry" />
        </mxCell>
        <mxCell id="ITSwiidnPCKGS9sClgnD-115" value="" style="edgeStyle=orthogonalEdgeStyle;rounded=0;orthogonalLoop=1;jettySize=auto;html=1;fontColor=#000000;" edge="1" parent="WIyWlLk6GJQsqaUBKTNV-1" source="ITSwiidnPCKGS9sClgnD-113" target="ITSwiidnPCKGS9sClgnD-114">
          <mxGeometry relative="1" as="geometry" />
        </mxCell>
        <mxCell id="ITSwiidnPCKGS9sClgnD-113" value="&lt;span style=&quot;background-color: rgb(255, 255, 255);&quot;&gt;CCSpriteFrameCache&lt;br&gt;&lt;/span&gt;&lt;pre style=&quot;font-family: &amp;quot;JetBrains Mono&amp;quot;, monospace; font-size: 9.8pt;&quot;&gt;&lt;span style=&quot;background-color: rgb(255, 255, 255);&quot;&gt;spriteFrameByName&lt;/span&gt;&lt;/pre&gt;&lt;pre style=&quot;font-family: &amp;quot;JetBrains Mono&amp;quot;, monospace; font-size: 9.8pt;&quot;&gt;&lt;span style=&quot;background-color: rgb(255, 255, 255);&quot;&gt;获得一个&lt;/span&gt;&lt;/pre&gt;&lt;pre style=&quot;font-family: &amp;quot;JetBrains Mono&amp;quot;, monospace; font-size: 9.8pt;&quot;&gt;&lt;span style=&quot;background-color: rgb(255, 255, 255);&quot;&gt;CCSpriteFrame&lt;/span&gt;&lt;/pre&gt;&lt;pre style=&quot;font-family: &amp;quot;JetBrains Mono&amp;quot;, monospace; font-size: 9.8pt;&quot;&gt;&lt;span style=&quot;background-color: rgb(255, 255, 255);&quot;&gt;此时引用计数为0&lt;/span&gt;&lt;/pre&gt;" style="rounded=1;whiteSpace=wrap;html=1;fontColor=#000000;align=left;" vertex="1" parent="WIyWlLk6GJQsqaUBKTNV-1">
          <mxGeometry x="440" y="2868" width="180" height="142" as="geometry" />
        </mxCell>
        <mxCell id="ITSwiidnPCKGS9sClgnD-117" value="" style="edgeStyle=orthogonalEdgeStyle;rounded=0;orthogonalLoop=1;jettySize=auto;html=1;fontColor=#000000;" edge="1" parent="WIyWlLk6GJQsqaUBKTNV-1" source="ITSwiidnPCKGS9sClgnD-114" target="ITSwiidnPCKGS9sClgnD-116">
          <mxGeometry relative="1" as="geometry" />
        </mxCell>
        <mxCell id="ITSwiidnPCKGS9sClgnD-114" value="CCSpriteFrame赋值给外部时，比如CCSprite或CCAnimation时，需引用计数+1 （此时总计数为1）" style="whiteSpace=wrap;html=1;align=left;fontColor=#000000;rounded=1;" vertex="1" parent="WIyWlLk6GJQsqaUBKTNV-1">
          <mxGeometry x="450" y="3040" width="120" height="119" as="geometry" />
        </mxCell>
        <mxCell id="ITSwiidnPCKGS9sClgnD-116" value="CCSprite或CCAnimation释放时，触发CCSpriteFrame计数-1" style="whiteSpace=wrap;html=1;align=left;fontColor=#000000;rounded=1;" vertex="1" parent="WIyWlLk6GJQsqaUBKTNV-1">
          <mxGeometry x="440" y="3200" width="120" height="80" as="geometry" />
        </mxCell>
        <mxCell id="ITSwiidnPCKGS9sClgnD-118" value="运行时动态创建CCSpriteFrame计数流程方案B：" style="text;html=1;strokeColor=none;fillColor=none;align=center;verticalAlign=middle;whiteSpace=wrap;rounded=0;fontStyle=1" vertex="1" parent="WIyWlLk6GJQsqaUBKTNV-1">
          <mxGeometry x="680" y="2808" width="310" height="30" as="geometry" />
        </mxCell>
        <mxCell id="ITSwiidnPCKGS9sClgnD-119" value="" style="edgeStyle=orthogonalEdgeStyle;rounded=0;orthogonalLoop=1;jettySize=auto;html=1;fontColor=#000000;" edge="1" parent="WIyWlLk6GJQsqaUBKTNV-1" source="ITSwiidnPCKGS9sClgnD-120" target="ITSwiidnPCKGS9sClgnD-122">
          <mxGeometry relative="1" as="geometry" />
        </mxCell>
        <mxCell id="ITSwiidnPCKGS9sClgnD-120" value="&lt;span style=&quot;background-color: rgb(255, 255, 255);&quot;&gt;CCSpriteFrameCache&lt;br&gt;&lt;/span&gt;&lt;pre style=&quot;font-family: &amp;quot;JetBrains Mono&amp;quot;, monospace; font-size: 9.8pt;&quot;&gt;&lt;span style=&quot;background-color: rgb(255, 255, 255);&quot;&gt;spriteFrameByName&lt;/span&gt;&lt;/pre&gt;&lt;pre style=&quot;font-family: &amp;quot;JetBrains Mono&amp;quot;, monospace; font-size: 9.8pt;&quot;&gt;&lt;span style=&quot;background-color: rgb(255, 255, 255);&quot;&gt;获得一个&lt;/span&gt;&lt;/pre&gt;&lt;pre style=&quot;font-family: &amp;quot;JetBrains Mono&amp;quot;, monospace; font-size: 9.8pt;&quot;&gt;&lt;span style=&quot;background-color: rgb(255, 255, 255);&quot;&gt;CCSpriteFrame&lt;/span&gt;&lt;/pre&gt;&lt;pre style=&quot;font-family: &amp;quot;JetBrains Mono&amp;quot;, monospace; font-size: 9.8pt;&quot;&gt;&lt;span style=&quot;background-color: rgb(255, 255, 255);&quot;&gt;此时引用计数为&lt;font color=&quot;#ff3333&quot;&gt;1&lt;/font&gt;&lt;/span&gt;&lt;/pre&gt;" style="rounded=1;whiteSpace=wrap;html=1;fontColor=#000000;align=left;" vertex="1" parent="WIyWlLk6GJQsqaUBKTNV-1">
          <mxGeometry x="745" y="2868" width="180" height="142" as="geometry" />
        </mxCell>
        <mxCell id="ITSwiidnPCKGS9sClgnD-121" value="" style="edgeStyle=orthogonalEdgeStyle;rounded=0;orthogonalLoop=1;jettySize=auto;html=1;fontColor=#000000;" edge="1" parent="WIyWlLk6GJQsqaUBKTNV-1" source="ITSwiidnPCKGS9sClgnD-122" target="ITSwiidnPCKGS9sClgnD-123">
          <mxGeometry relative="1" as="geometry" />
        </mxCell>
        <mxCell id="ITSwiidnPCKGS9sClgnD-122" value="CCSpriteFrame赋值给外部时，比如CCSprite或CCAnimation时，需引用计数+1 （此时总计数为2）" style="whiteSpace=wrap;html=1;align=left;fontColor=#000000;rounded=1;" vertex="1" parent="WIyWlLk6GJQsqaUBKTNV-1">
          <mxGeometry x="755" y="3040" width="120" height="119" as="geometry" />
        </mxCell>
        <mxCell id="ITSwiidnPCKGS9sClgnD-125" value="" style="edgeStyle=orthogonalEdgeStyle;rounded=0;orthogonalLoop=1;jettySize=auto;html=1;fontColor=#FF3333;" edge="1" parent="WIyWlLk6GJQsqaUBKTNV-1" source="ITSwiidnPCKGS9sClgnD-123" target="ITSwiidnPCKGS9sClgnD-124">
          <mxGeometry relative="1" as="geometry" />
        </mxCell>
        <mxCell id="ITSwiidnPCKGS9sClgnD-123" value="CCSprite或CCAnimation释放时，触发CCSpriteFrame计数-1" style="whiteSpace=wrap;html=1;align=left;fontColor=#000000;rounded=1;" vertex="1" parent="WIyWlLk6GJQsqaUBKTNV-1">
          <mxGeometry x="745" y="3200" width="120" height="80" as="geometry" />
        </mxCell>
        <mxCell id="ITSwiidnPCKGS9sClgnD-124" value="定时，或者按数量策略回收CCSpriteFrameCache中计数为1的CCSpriteFrame" style="whiteSpace=wrap;html=1;align=left;fontColor=#000000;rounded=1;" vertex="1" parent="WIyWlLk6GJQsqaUBKTNV-1">
          <mxGeometry x="740" y="3320" width="120" height="100" as="geometry" />
        </mxCell>
      </root>
    </mxGraphModel>
  </diagram>
</mxfile>
